<?xml version="1.0" encoding="UTF-8" standalone="no"?>
<svg
    width="210mm"
    height="297mm"
    viewBox="0 0 210 297"
    version="1.1"
    id="svg1"
    xml:space="preserve"
    inkscape:version="1.4.2 (f4327f4, 2025-05-13)"
    sodipodi:docname="aaaa.svg"
    inkscape:export-batch-path="C:\Users\yeahm\Desktop"
    inkscape:export-batch-name="ACC_Logo2"
    xmlns:inkscape="http://www.inkscape.org/namespaces/inkscape"
    xmlns:sodipodi="http://sodipodi.sourceforge.net/DTD/sodipodi-0.dtd"
    xmlns="http://www.w3.org/2000/svg"
    xmlns:svg="http://www.w3.org/2000/svg">
    <sodipodi:namedview
        id="namedview1"
        pagecolor="#ffffff"
        bordercolor="#000000"
        borderopacity="0.25"
        inkscape:showpageshadow="2"
        inkscape:pageopacity="0.0"
        inkscape:pagecheckerboard="0"
        inkscape:deskcolor="#d1d1d1"
        inkscape:document-units="mm"
        inkscape:zoom="1.4142136"
        inkscape:cx="399.51533"
        inkscape:cy="575.23137"
        inkscape:window-width="2560"
        inkscape:window-height="1377"
        inkscape:window-x="2552"
        inkscape:window-y="-8"
        inkscape:window-maximized="1"
        inkscape:current-layer="svg1"
        inkscape:lockguides="true" />

    <defs id="defs1">
      <rect x="92" y="283" width="607" height="159" id="rect16" />
    </defs>
    <g id="g1" transform="translate(0.52916667,24.077083)" inkscape:export-filename="g1.svg" inkscape:export-xdpi="90.482155" inkscape:export-ydpi="90.482155">
        <g
            id="g12"
            inkscape:label="Logo"
            style="display:inline;opacity:1"
            sodipodi:insensitive="true">

            <path
                style="display:inline;opacity:1;fill:#000000;stroke-width:0.264999"
                d="m 105.65832,215.38583 c 0,0 15.41144,-8.11498 30.0745,-23.83042 2.15152,-2.10475 12.02046,-13.447 19.36369,-27.29156 2.68939,-4.32643 10.2431,-22.07646 12.44139,-32.64697 0.46772,-2.29184 3.695,-15.57513 4.06918,-24.78925 0.0468,-1.12253 0.0468,-49.952676 0.0468,-49.952676 0,0 -10.2431,-10.219718 -32.83406,-10.336649 -0.0468,10.617282 0,16.884753 0,16.884753 0,0 -3.08697,-1.028986 -9.72861,-1.169304 0.0468,-2.946647 0,-22.544186 0,-22.544186 0,0 -20.29912,-11.27209 -46.678621,-0.187086 0.280632,7.670635 0.09354,22.684498 0.09354,22.684498 0,0 -6.337629,0.654811 -9.72861,1.075762 -0.04677,-3.040192 0,-16.744437 0,-16.744437 0,0 -19.503994,-1.707184 -32.927607,10.523739 0.09355,3.180506 0,47.660836 0,47.660836 0,0 0.986917,15.43035 3.736099,26.19947 0.608039,1.91766 5.327729,20.93633 14.725208,36.59285 0.795129,1.40316 10.210033,18.12353 22.978835,29.62948 2.151518,1.8475 13.797788,12.95589 24.368296,18.24115 z"
                id="path17"
                sodipodi:nodetypes="cccccccccccccccccccsc"
                inkscape:label="negro" />

            <path
                style="display:inline;opacity:1;fill:#fcdd09;fill-opacity:1;stroke-width:0.264999"
                d="m 105.62926,210.53121 c 0,0 13.24221,-7.35292 26.12793,-21.24425 7.29646,-7.9045 11.69305,-13.40023 18.8258,-25.8884 2.68939,-4.32643 10.21972,-21.58535 12.41801,-32.15586 0.46772,-2.29184 3.57807,-13.28329 3.95225,-22.49741 0.46775,-15.013864 0.30409,-49.718816 0.30409,-49.718816 0,0 -6.03361,-6.173926 -24.13444,-8.021427 -0.0468,10.617282 -0.0234,17.305702 -0.0234,17.305702 0,0 -9.98586,-1.707182 -18.45162,-2.221677 0.0468,-2.946647 0.16366,-23.362699 0.16366,-23.362699 0,0 -16.62751,-7.27307 -38.049159,-0.210472 0.280632,7.670635 0.05009,23.691275 0.05009,23.691275 0,0 -15.141909,1.714771 -18.53289,2.135722 -0.04677,-3.040192 0.04795,-17.668817 0.04795,-17.668817 0,0 -13.813791,1.251181 -24.128549,8.240046 0.09355,3.180506 -0.03072,47.108483 -0.03072,47.108483 0,0 1.532856,15.41685 4.32881,25.36746 0.608039,1.91766 5.093868,19.93073 14.491347,35.58725 3.391673,5.99721 11.161409,17.11683 20.73211,26.70787 5.805334,5.26359 11.746911,10.32616 21.908731,16.84602 z"
                id="path18"
                sodipodi:nodetypes="cccccccccccccccccccc"
                inkscape:label="amarillo" />

            <path
                style="display:inline;opacity:1;fill:#0099ff;fill-opacity:1;stroke-width:0.264999"
                d="m 62.929907,166.8684 85.633633,0.0175 c 0,0 -14.32366,26.86196 -42.84418,43.60495 C 77.946953,193.86768 65.559927,171.76107 62.929907,166.8684 Z"
                id="path1"
                inkscape:label="azul"
                sodipodi:nodetypes="cccc" />            <g
                id="g11"
                inkscape:label="Barras rojas"
                style="display:inline">

                <path
                    style="opacity:1;fill:#d41519;fill-opacity:1;stroke-width:0.264999;stroke-dasharray:none"
                    d="m 52.92287,86.35117 h 15.323937 l 0.0877,-35.696977 c 0,0 -7.690577,0.632634 -15.399527,3.770503 -0.0316,0.868884 -0.01211,31.926474 -0.01211,31.926474 z"
                    id="path8"
                    sodipodi:nodetypes="cccccc"
                    sodipodi:insensitive="true" />

                <path
                    style="opacity:1;fill:#d41519;fill-opacity:1;stroke-width:0.264999;stroke-dasharray:none"
                    d="M 83.1442,86.185292 H 98.152179 V 39.889628 c 0,0 -5.759661,0.652717 -11.370899,2.578064 l 0.047,23.73329 -3.601136,0.406175 z"
                    id="path9"
                    sodipodi:nodetypes="ccccccc"
                    sodipodi:insensitive="true" />

                <path
                    style="opacity:1;fill:#d41519;fill-opacity:1;stroke-width:0.264999;stroke-dasharray:none"
                    d="m 113.31642,86.283124 h 15.03587 l -0.006,-19.930558 -3.66814,-0.278546 0.13409,-23.361169 c 0,0 -4.98902,-2.133461 -11.5633,-2.788475 -0.0447,1.318154 0.067,46.358748 0.067,46.358748 z"
                    id="path10"
                    sodipodi:nodetypes="cccccccc"
                    sodipodi:insensitive="true" />

                <path
                    style="opacity:1;fill:#d41519;fill-opacity:1;stroke-width:0.264999;stroke-dasharray:none"
                    d="m 143.18709,86.2161 h 15.28163 V 54.262908 c 0,0 -7.40032,-2.691359 -15.42094,-3.272241 0,1.496885 0.0129,35.351816 0.0129,35.351816 z"
                    id="path11"
                    sodipodi:nodetypes="cccccc"
                    sodipodi:insensitive="true" />

            </g>

            <path
                style="display:inline;opacity:1;fill:#ffffff;fill-opacity:1;stroke-width:0.264999;stroke-dasharray:none"
                d="m 48.348235,131.12978 114.736665,0.0661 c 0,0 3.2024,-11.03716 3.93333,-21.72458 0.40656,-8.15186 0.33073,-23.415622 0.33073,-23.415622 H 44.11927 c 0,0 -0.08268,15.312762 0.03308,20.009112 -0.03304,1.73658 1.914447,17.23061 4.195888,25.06494 z"
                id="path12"
                inkscape:label="blanco"
                sodipodi:nodetypes="cccccccc" />

            <g
                id="g6"
                inkscape:label="Torre"
                style="display:inline">

                <path
                    style="display:inline;fill:#000000;fill-opacity:1;stroke-width:0.264583"
                    d="m 82.522175,196.60767 22.754845,15.77892 12.88864,-7.18542 11.57902,-9.80467 -1.52915,-26.48565 7.20383,-7.33021 v -21.80107 h -15.35553 v 10.23702 h -6.57192 V 139.90596 H 98.389148 v 10.11063 H 91.438083 V 139.90596 H 76.335318 v 21.23234 l 7.330212,7.70936 -1.23099,24.34665 z"
                    id="path5"
                    sodipodi:insensitive="true"
                    inkscape:label="exterior"
                    sodipodi:nodetypes="cccccccccccccccccccc" />

                <path
                    style="display:inline;opacity:1;fill:#ffffff;stroke-width:0.265;stroke-dasharray:none"
                    d="m 85.01106,194.51808 1.256164,-26.70383 -7.322546,-7.36339 0.04468,-17.76448 h 9.88788 l 0.06703,9.94724 12.050402,0.0447 0.11171,-9.92873 h 9.73149 v 9.92873 l 12.00956,-0.0447 0.067,-9.94724 9.743,-0.0223 0.0447,17.96873 -7.1068,7.37106 1.22999,26.68915 c 0,0 -11.44631,10.10405 -21.10596,15.79787 -3.28596,-1.70617 -15.218736,-10.3185 -20.708298,-15.97277 z"
                    id="path6"
                    sodipodi:nodetypes="cccccccccccccccccc"
                    inkscape:label="interior"
                    sodipodi:insensitive="true" />

                <g
                    id="g4"
                    inkscape:label="Círculos"
                    sodipodi:insensitive="true"
                    style="display:inline">

                    <circle
                        style="display:inline;fill:#0099ff;fill-opacity:1;stroke-width:0.307456"
                        id="path2"
                        cx="105.90894"
                        cy="181.67551"
                        r="15.861063"
                        sodipodi:insensitive="true" />

                    <circle
                        style="display:inline;fill:#f80362;fill-opacity:1;stroke-width:0.272303"
                        id="path3"
                        cx="105.84575"
                        cy="181.80191"
                        r="12.259149"
                        sodipodi:insensitive="true" />

                    <circle
                        style="display:inline;fill:#fcdd09;fill-opacity:1;stroke-width:0.241356"
                        id="path4"
                        cx="105.94053"
                        cy="181.77031"
                        r="7.5513825"
                        sodipodi:insensitive="true" />

                </g>

            </g>

        </g>

        <g
            id="g15"
            inkscape:label="Plumas"
            style="display:inline">

            <path
                style="display:inline;fill:#000000;fill-opacity:1;stroke-width:0.264999;stroke-dasharray:none"
                d="m 39.324531,108.67415 c 0,0 -8.216661,-3.9736 -10.035956,-4.58387 -1.819295,-0.61027 -9.453852,-0.74033 -9.453852,-0.74033 0,0 -3.271701,1.14778 -3.807231,4.64014 0,1.07576 -0.01938,2.85995 -0.01938,2.85995 0,0 0.448833,2.36365 3.348708,4.32808 5.307918,0.15005 10.283515,-0.52702 10.283515,-0.52702 l 9.69505,-4.46958 z"
                id="path13"
                sodipodi:nodetypes="czccccccc"
                sodipodi:insensitive="true" />

            <path
                style="fill:#ffffff;fill-opacity:1;stroke-width:0.264999;stroke-dasharray:none"
                d="M 35.365809,108.07295 H 17.108385 c 0,0 0.321042,-2.2356 2.520391,-3.57505 0.959114,-0.33896 7.538695,0.13557 9.574609,0.56224 0.363802,0.14056 6.162424,3.01281 6.162424,3.01281 z"
                id="path14"
                sodipodi:nodetypes="ccccc"
                sodipodi:insensitive="true" />

            <path
                style="fill:#ffffff;fill-opacity:1;stroke-width:0.264999;stroke-dasharray:none"
                d="M 35.365809,110.58219 H 17.108385 c 0,0 0.321042,2.2356 2.520391,3.57505 0.959114,0.33896 7.538695,-0.13557 9.574609,-0.56224 0.363802,-0.14056 6.162424,-3.01281 6.162424,-3.01281 z"
                id="path15"
                sodipodi:nodetypes="ccccc"
                sodipodi:insensitive="true" />

        </g>

        <path
            style="display:inline;fill:#000000;fill-opacity:1;stroke-width:0.264999;stroke-dasharray:none"
            d="m 12.189441,107.90866 c 0,0 -0.237179,1.20567 1.222164,1.31532 0.196188,0.0168 1.620035,0.18123 1.620035,0.18123 l -1.618237,0.08 c 0,0 -1.114412,0.073 -1.118546,1.27603 0.785481,0.008 174.889583,0.1819 174.889583,0.1819 0,0 2.20348,-0.20671 3.30522,-1.38493 -1.18028,-0.99632 -2.25516,-1.32705 -3.31349,-1.53376 -0.40515,-0.008 -174.986729,-0.11577 -174.986729,-0.11577 z"
            id="path16"
            sodipodi:nodetypes="cccccccccc"
            inkscape:label="Palo" />

        <text
            xml:space="preserve"
            transform="matrix(0.26458333,0,0,0.26458333,1.2747676,17.460042)"
            id="text16"
            style="font-style:normal;font-variant:normal;font-weight:normal;font-stretch:normal;font-size:48px;line-height:1.44;font-family:Montserrat;-inkscape-font-specification:Montserrat;text-align:start;letter-spacing:-1.5px;word-spacing:0px;writing-mode:lr-tb;direction:ltr;white-space:pre;shape-inside:url(#rect16);display:inline;fill:#000000;fill-opacity:1;stroke-width:1.00157;stroke-dasharray:none"
            x="204.77852"
            y="0"
            inkscape:label="Texto">

            <tspan
                x="18"
                y="331.67649"
                id="tspan3">
                <tspan
                    style="font-weight:bold;-inkscape-font-specification:'Montserrat Bold';text-align:center;text-anchor:middle"
                    id="tspan1">ARQUERS CLUB</tspan>
            </tspan>

            <tspan
                x="8"
                y="395"
                id="tspan5">
                <tspan
                    style="font-weight:bold;-inkscape-font-specification:'Montserrat Bold';text-align:center;text-anchor:middle"
                    id="tspan4">CASTELLDEFELS</tspan>
            </tspan>

        </text>

    </g>

</svg>
