<?xml version="1.0" encoding="UTF-8" standalone="no"?>
<!-- Created with Inkscape (http://www.inkscape.org/) -->

<svg
   width="178.31448mm"
   height="180.74199mm"
   viewBox="0 0 178.31448 180.74199"
   version="1.1"
   id="svg1"
   xml:space="preserve"
   xmlns="http://www.w3.org/2000/svg"
   xmlns:svg="http://www.w3.org/2000/svg"><defs
     id="defs1" /><g
     id="g1"
     transform="translate(-12.175169,-34.643852)"><g
       id="g12"
       style="display:inline;opacity:1"><path
         style="display:inline;opacity:1;fill:#000000;stroke-width:0.264999"
         d="m 105.65832,215.38583 c 0,0 15.41144,-8.11498 30.0745,-23.83042 2.15152,-2.10475 12.02046,-13.447 19.36369,-27.29156 2.68939,-4.32643 10.2431,-22.07646 12.44139,-32.64697 0.46772,-2.29184 3.695,-15.57513 4.06918,-24.78925 0.0468,-1.12253 0.0468,-49.952676 0.0468,-49.952676 0,0 -10.2431,-10.219718 -32.83406,-10.336649 -0.0468,10.617282 0,16.884753 0,16.884753 0,0 -3.08697,-1.028986 -9.72861,-1.169304 0.0468,-2.946647 0,-22.544186 0,-22.544186 0,0 -20.29912,-11.27209 -46.678621,-0.187086 0.280632,7.670635 0.09354,22.684498 0.09354,22.684498 0,0 -6.337629,0.654811 -9.72861,1.075762 -0.04677,-3.040192 0,-16.744437 0,-16.744437 0,0 -19.503994,-1.707184 -32.927607,10.523739 0.09355,3.180506 0,47.660836 0,47.660836 0,0 0.986917,15.43035 3.736099,26.19947 0.608039,1.91766 5.327729,20.93633 14.725208,36.59285 0.795129,1.40316 10.210033,18.12353 22.978835,29.62948 2.151518,1.8475 13.797788,12.95589 24.368296,18.24115 z"
         id="path17" /><path
         style="display:inline;opacity:1;fill:#fcdd09;fill-opacity:1;stroke-width:0.264999"
         d="m 105.62926,210.53121 c 0,0 13.24221,-7.35292 26.12793,-21.24425 7.29646,-7.9045 11.69305,-13.40023 18.8258,-25.8884 2.68939,-4.32643 10.21972,-21.58535 12.41801,-32.15586 0.46772,-2.29184 3.57807,-13.28329 3.95225,-22.49741 0.46775,-15.013864 0.30409,-49.718816 0.30409,-49.718816 0,0 -6.03361,-6.173926 -24.13444,-8.021427 -0.0468,10.617282 -0.0234,17.305702 -0.0234,17.305702 0,0 -9.98586,-1.707182 -18.45162,-2.221677 0.0468,-2.946647 0.16366,-23.362699 0.16366,-23.362699 0,0 -16.62751,-7.27307 -38.049159,-0.210472 0.280632,7.670635 0.05009,23.691275 0.05009,23.691275 0,0 -15.141909,1.714771 -18.53289,2.135722 -0.04677,-3.040192 0.04795,-17.668817 0.04795,-17.668817 0,0 -13.813791,1.251181 -24.128549,8.240046 0.09355,3.180506 -0.03072,47.108483 -0.03072,47.108483 0,0 1.532856,15.41685 4.32881,25.36746 0.608039,1.91766 5.093868,19.93073 14.491347,35.58725 3.391673,5.99721 11.161409,17.11683 20.73211,26.70787 5.805334,5.26359 11.746911,10.32616 21.908731,16.84602 z"
         id="path18" /><path
         style="display:inline;opacity:1;fill:#0099ff;fill-opacity:1;stroke-width:0.264999"
         d="m 62.929907,166.8684 85.633633,0.0175 c 0,0 -14.32366,26.86196 -42.84418,43.60495 C 77.946953,193.86768 65.559927,171.76107 62.929907,166.8684 Z"
         id="path1" /><g
         id="g11"
         style="display:inline"><path
           style="opacity:1;fill:#d41519;fill-opacity:1;stroke-width:0.264999;stroke-dasharray:none"
           d="m 52.92287,86.35117 h 15.323937 l 0.0877,-35.696977 c 0,0 -7.690577,0.632634 -15.399527,3.770503 -0.0316,0.868884 -0.01211,31.926474 -0.01211,31.926474 z"
           id="path8" /><path
           style="opacity:1;fill:#d41519;fill-opacity:1;stroke-width:0.264999;stroke-dasharray:none"
           d="M 83.1442,86.185292 H 98.152179 V 39.889628 c 0,0 -5.759661,0.652717 -11.370899,2.578064 l 0.047,23.73329 -3.601136,0.406175 z"
           id="path9" /><path
           style="opacity:1;fill:#d41519;fill-opacity:1;stroke-width:0.264999;stroke-dasharray:none"
           d="m 113.31642,86.283124 h 15.03587 l -0.006,-19.930558 -3.66814,-0.278546 0.13409,-23.361169 c 0,0 -4.98902,-2.133461 -11.5633,-2.788475 -0.0447,1.318154 0.067,46.358748 0.067,46.358748 z"
           id="path10" /><path
           style="opacity:1;fill:#d41519;fill-opacity:1;stroke-width:0.264999;stroke-dasharray:none"
           d="m 143.18709,86.2161 h 15.28163 V 54.262908 c 0,0 -7.40032,-2.691359 -15.42094,-3.272241 0,1.496885 0.0129,35.351816 0.0129,35.351816 z"
           id="path11" /></g><path
         style="display:inline;opacity:1;fill:#ffffff;fill-opacity:1;stroke-width:0.264999;stroke-dasharray:none"
         d="m 48.348235,131.12978 114.736665,0.0661 c 0,0 3.2024,-11.03716 3.93333,-21.72458 0.40656,-8.15186 0.33073,-23.415622 0.33073,-23.415622 H 44.11927 c 0,0 -0.08268,15.312762 0.03308,20.009112 -0.03304,1.73658 1.914447,17.23061 4.195888,25.06494 z"
         id="path12" /><g
         id="g6"
         style="display:inline"><path
           style="display:inline;fill:#000000;fill-opacity:1;stroke-width:0.264583"
           d="m 82.522175,196.60767 22.754845,15.77892 12.88864,-7.18542 11.57902,-9.80467 -1.52915,-26.48565 7.20383,-7.33021 v -21.80107 h -15.35553 v 10.23702 h -6.57192 V 139.90596 H 98.389148 v 10.11063 H 91.438083 V 139.90596 H 76.335318 v 21.23234 l 7.330212,7.70936 -1.23099,24.34665 z"
           id="path5" /><path
           style="display:inline;opacity:1;fill:#ffffff;stroke-width:0.265;stroke-dasharray:none"
           d="m 85.01106,194.51808 1.256164,-26.70383 -7.322546,-7.36339 0.04468,-17.76448 h 9.88788 l 0.06703,9.94724 12.050402,0.0447 0.11171,-9.92873 h 9.73149 v 9.92873 l 12.00956,-0.0447 0.067,-9.94724 9.743,-0.0223 0.0447,17.96873 -7.1068,7.37106 1.22999,26.68915 c 0,0 -11.44631,10.10405 -21.10596,15.79787 -3.28596,-1.70617 -15.218736,-10.3185 -20.708298,-15.97277 z"
           id="path6" /><g
           id="g4"
           style="display:inline"><circle
             style="display:inline;fill:#0099ff;fill-opacity:1;stroke-width:0.307456"
             id="path2"
             cx="105.90894"
             cy="181.67551"
             r="15.861063" /><circle
             style="display:inline;fill:#f80362;fill-opacity:1;stroke-width:0.272303"
             id="path3"
             cx="105.84575"
             cy="181.80191"
             r="12.259149" /><circle
             style="display:inline;fill:#fcdd09;fill-opacity:1;stroke-width:0.241356"
             id="path4"
             cx="105.94053"
             cy="181.77031"
             r="7.5513825" /></g></g><g
         id="g15"
         style="display:inline"><path
           style="display:inline;fill:#000000;fill-opacity:1;stroke-width:0.264999;stroke-dasharray:none"
           d="m 39.324531,108.67415 c 0,0 -8.216661,-3.9736 -10.035956,-4.58387 -1.819295,-0.61027 -9.453852,-0.74033 -9.453852,-0.74033 0,0 -3.271701,1.14778 -3.807231,4.64014 0,1.07576 -0.01938,2.85995 -0.01938,2.85995 0,0 0.448833,2.36365 3.348708,4.32808 5.307918,0.15005 10.283515,-0.52702 10.283515,-0.52702 l 9.69505,-4.46958 z"
           id="path13" /><path
           style="fill:#ffffff;fill-opacity:1;stroke-width:0.264999;stroke-dasharray:none"
           d="M 35.365809,108.07295 H 17.108385 c 0,0 0.321042,-2.2356 2.520391,-3.57505 0.959114,-0.33896 7.538695,0.13557 9.574609,0.56224 0.363802,0.14056 6.162424,3.01281 6.162424,3.01281 z"
           id="path14" /><path
           style="fill:#ffffff;fill-opacity:1;stroke-width:0.264999;stroke-dasharray:none"
           d="M 35.365809,110.58219 H 17.108385 c 0,0 0.321042,2.2356 2.520391,3.57505 0.959114,0.33896 7.538695,-0.13557 9.574609,-0.56224 0.363802,-0.14056 6.162424,-3.01281 6.162424,-3.01281 z"
           id="path15" /></g><path
         style="display:inline;fill:#000000;fill-opacity:1;stroke-width:0.264999;stroke-dasharray:none"
         d="m 12.189441,107.90866 c 0,0 -0.237179,1.20567 1.222164,1.31532 0.196188,0.0168 1.620035,0.18123 1.620035,0.18123 l -1.618237,0.08 c 0,0 -1.114412,0.073 -1.118546,1.27603 0.785481,0.008 174.889583,0.1819 174.889583,0.1819 0,0 2.20348,-0.20671 3.30522,-1.38493 -1.18028,-0.99632 -2.25516,-1.32705 -3.31349,-1.53376 -0.40515,-0.008 -174.986729,-0.11577 -174.986729,-0.11577 z"
         id="path16" /><path
         style="font-weight:bold;font-size:48px;line-height:1.44;font-family:Montserrat;-inkscape-font-specification:'Montserrat Bold';text-align:center;letter-spacing:-1.5px;word-spacing:0px;text-anchor:middle;white-space:pre;stroke-width:1.00157"
         d="m 203.34074,331.67649 14.976,-33.6 h 7.68 l 15.024,33.6 h -8.16 l -12.288,-29.664 h 3.072 l -12.336,29.664 z m 7.488,-7.2 2.064,-5.904 h 17.28 l 2.112,5.904 z m 32.19603,7.2 v -33.6 h 14.352 q 7.008,0 10.896,3.264 3.888,3.216 3.888,8.928 0,3.744 -1.776,6.48 -1.776,2.688 -5.04,4.128 -3.264,1.44 -7.776,1.44 h -10.224 l 3.456,-3.408 v 12.768 z m 21.36,0 -8.4,-12.192 h 8.304 l 8.496,12.192 z m -13.584,-11.904 -3.456,-3.648 h 9.792 q 3.6,0 5.376,-1.536 1.776,-1.584 1.776,-4.32 0,-2.784 -1.776,-4.32 -1.776,-1.536 -5.376,-1.536 h -9.792 l 3.456,-3.696 z m 42.27603,12.48 q -3.936,0 -7.344,-1.296 -3.36,-1.296 -5.856,-3.648 -2.448,-2.352 -3.84,-5.52 -1.344,-3.168 -1.344,-6.912 0,-3.744 1.344,-6.912 1.392,-3.168 3.888,-5.52 2.496,-2.352 5.856,-3.648 3.36,-1.296 7.296,-1.296 3.984,0 7.296,1.296 3.36,1.296 5.808,3.648 2.496,2.304 3.888,5.472 1.392,3.168 1.392,6.96 0,3.744 -1.392,6.96 -1.392,3.168 -3.888,5.52 -2.448,2.304 -5.808,3.6 -3.312,1.296 -7.296,1.296 z m 10.992,7.152 q -1.968,0 -3.744,-0.432 -1.728,-0.432 -3.456,-1.392 -1.68,-0.96 -3.552,-2.592 -1.824,-1.632 -3.984,-4.032 l 8.16,-2.064 q 1.296,1.776 2.4,2.832 1.104,1.056 2.112,1.488 1.056,0.432 2.208,0.432 3.072,0 5.472,-2.496 l 3.456,4.128 q -3.408,4.128 -9.072,4.128 z m -10.992,-13.776 q 2.256,0 4.128,-0.768 1.92,-0.768 3.36,-2.208 1.44,-1.44 2.208,-3.408 0.816,-2.016 0.816,-4.368 0,-2.4 -0.816,-4.368 -0.768,-1.968 -2.208,-3.408 -1.44,-1.44 -3.36,-2.208 -1.872,-0.768 -4.128,-0.768 -2.256,0 -4.176,0.768 -1.92,0.768 -3.36,2.208 -1.392,1.44 -2.208,3.408 -0.768,1.968 -0.768,4.368 0,2.352 0.768,4.368 0.816,1.968 2.208,3.408 1.44,1.44 3.36,2.208 1.92,0.768 4.176,0.768 z m 37.66799,6.624 q -7.152,0 -11.184,-3.984 -4.032,-3.984 -4.032,-11.376 v -18.816 h 7.776 v 18.528 q 0,4.8 1.968,6.912 1.968,2.112 5.52,2.112 3.552,0 5.52,-2.112 1.968,-2.112 1.968,-6.912 v -18.528 h 7.68 v 18.816 q 0,7.392 -4.032,11.376 -4.032,3.984 -11.184,3.984 z m 21.39601,-0.576 v -33.6 h 25.392 v 6.24 h -17.664 v 21.12 h 18.288 v 6.24 z m 7.152,-14.016 v -6.048 h 16.176 v 6.048 z m 23.55598,14.016 v -33.6 h 14.352 q 7.008,0 10.896,3.264 3.888,3.216 3.888,8.928 0,3.744 -1.776,6.48 -1.776,2.688 -5.04,4.128 -3.264,1.44 -7.776,1.44 h -10.224 l 3.456,-3.408 v 12.768 z m 21.36,0 -8.4,-12.192 h 8.304 l 8.496,12.192 z m -13.584,-11.904 -3.456,-3.648 h 9.792 q 3.6,0 5.376,-1.536 1.776,-1.584 1.776,-4.32 0,-2.784 -1.776,-4.32 -1.776,-1.536 -5.376,-1.536 h -9.792 l 3.456,-3.696 z m 37.04403,12.48 q -4.032,0 -7.728,-1.056 -3.696,-1.104 -5.952,-2.832 l 2.64,-5.856 q 2.16,1.536 5.088,2.544 2.976,0.96 6,0.96 2.304,0 3.696,-0.432 1.44,-0.48 2.112,-1.296 0.672,-0.816 0.672,-1.872 0,-1.344 -1.056,-2.112 -1.056,-0.816 -2.784,-1.296 -1.728,-0.528 -3.84,-0.96 -2.064,-0.48 -4.176,-1.152 -2.064,-0.672 -3.792,-1.728 -1.728,-1.056 -2.832,-2.784 -1.056,-1.728 -1.056,-4.416 0,-2.88 1.536,-5.232 1.584,-2.4 4.704,-3.792 3.168,-1.44 7.92,-1.44 3.168,0 6.24,0.768 3.072,0.72 5.424,2.208 l -2.4,5.904 q -2.352,-1.344 -4.704,-1.968 -2.352,-0.672 -4.608,-0.672 -2.256,0 -3.696,0.528 -1.44,0.528 -2.064,1.392 -0.624,0.816 -0.624,1.92 0,1.296 1.056,2.112 1.056,0.768 2.784,1.248 1.728,0.48 3.792,0.96 2.112,0.48 4.176,1.104 2.112,0.624 3.84,1.68 1.728,1.056 2.784,2.784 1.104,1.728 1.104,4.368 0,2.832 -1.584,5.184 -1.584,2.352 -4.752,3.792 -3.12,1.44 -7.92,1.44 z m 46.24806,0 q -3.888,0 -7.248,-1.248 -3.312,-1.296 -5.76,-3.648 -2.448,-2.352 -3.84,-5.52 -1.344,-3.168 -1.344,-6.96 0,-3.792 1.344,-6.96 1.392,-3.168 3.84,-5.52 2.496,-2.352 5.808,-3.6 3.312,-1.296 7.248,-1.296 4.368,0 7.872,1.536 3.552,1.488 5.952,4.416 l -4.992,4.608 q -1.728,-1.968 -3.84,-2.928 -2.112,-1.008 -4.608,-1.008 -2.352,0 -4.32,0.768 -1.968,0.768 -3.408,2.208 -1.44,1.44 -2.256,3.408 -0.768,1.968 -0.768,4.368 0,2.4 0.768,4.368 0.816,1.968 2.256,3.408 1.44,1.44 3.408,2.208 1.968,0.768 4.32,0.768 2.496,0 4.608,-0.96 2.112,-1.008 3.84,-3.024 l 4.992,4.608 q -2.4,2.928 -5.952,4.464 -3.504,1.536 -7.92,1.536 z m 17.17205,-0.576 v -33.6 h 7.776 v 27.264 h 16.848 v 6.336 z m 42.00637,0.576 q -7.152,0 -11.184,-3.984 -4.032,-3.984 -4.032,-11.376 v -18.816 h 7.776 v 18.528 q 0,4.8 1.968,6.912 1.968,2.112 5.52,2.112 3.552,0 5.52,-2.112 1.968,-2.112 1.968,-6.912 v -18.528 h 7.68 v 18.816 q 0,7.392 -4.032,11.376 -4.032,3.984 -11.184,3.984 z m 21.396,-0.576 v -33.6 h 16.416 q 6.336,0 9.504,2.4 3.216,2.4 3.216,6.336 0,2.64 -1.296,4.608 -1.296,1.92 -3.552,2.976 -2.256,1.056 -5.184,1.056 l 0.912,-1.968 q 3.168,0 5.616,1.056 2.448,1.008 3.792,3.024 1.392,2.016 1.392,4.944 0,4.32 -3.408,6.768 -3.408,2.4 -10.032,2.4 z m 7.728,-5.856 h 9.072 q 3.024,0 4.56,-0.96 1.584,-1.008 1.584,-3.168 0,-2.112 -1.584,-3.12 -1.536,-1.056 -4.56,-1.056 h -9.648 v -5.664 h 8.304 q 2.832,0 4.32,-0.96 1.536,-1.008 1.536,-3.024 0,-1.968 -1.536,-2.928 -1.488,-1.008 -4.32,-1.008 h -7.728 z m -345.17764,75.552 q -3.888,0 -7.248,-1.248 -3.312,-1.296 -5.76,-3.648 -2.448,-2.352 -3.84,-5.52 -1.344,-3.168 -1.344,-6.96 0,-3.792 1.344,-6.96 1.392,-3.168 3.84,-5.52 2.496,-2.352 5.808,-3.6 3.312,-1.296 7.248,-1.296 4.368,0 7.872,1.536 3.552,1.488 5.952,4.416 l -4.992,4.608 q -1.728,-1.968 -3.84,-2.928 -2.112,-1.008 -4.608,-1.008 -2.352,0 -4.32,0.768 -1.968,0.768 -3.408,2.208 -1.44,1.44 -2.256,3.408 -0.768,1.968 -0.768,4.368 0,2.4 0.768,4.368 0.816,1.968 2.256,3.408 1.44,1.44 3.408,2.208 1.968,0.768 4.32,0.768 2.496,0 4.608,-0.96 2.112,-1.008 3.84,-3.024 l 4.992,4.608 q -2.4,2.928 -5.952,4.464 -3.504,1.536 -7.92,1.536 z m 12.10235,-0.576 14.976,-33.6 h 7.68 l 15.024,33.6 h -8.16 l -12.288,-29.664 h 3.072 l -12.336,29.664 z m 7.488,-7.2 2.064,-5.904 h 17.28 l 2.112,5.904 z m 43.23604,7.776 q -4.032,0 -7.728,-1.056 -3.696,-1.104 -5.952,-2.832 l 2.64,-5.856 q 2.16,1.536 5.088,2.544 2.976,0.96 6,0.96 2.304,0 3.696,-0.432 1.44,-0.48 2.112,-1.296 0.672,-0.816 0.672,-1.872 0,-1.344 -1.056,-2.112 -1.056,-0.816 -2.784,-1.296 -1.728,-0.528 -3.84,-0.96 -2.064,-0.48 -4.176,-1.152 -2.064,-0.672 -3.792,-1.728 -1.728,-1.056 -2.832,-2.784 -1.056,-1.728 -1.056,-4.416 0,-2.88 1.536,-5.232 1.584,-2.4 4.704,-3.792 3.168,-1.44 7.92,-1.44 3.168,0 6.24,0.768 3.072,0.72 5.424,2.208 l -2.4,5.904 q -2.352,-1.344 -4.704,-1.968 -2.352,-0.672 -4.608,-0.672 -2.256,0 -3.696,0.528 -1.44,0.528 -2.064,1.392 -0.624,0.816 -0.624,1.92 0,1.296 1.056,2.112 1.056,0.768 2.784,1.248 1.728,0.48 3.792,0.96 2.112,0.48 4.176,1.104 2.112,0.624 3.84,1.68 1.728,1.056 2.784,2.784 1.104,1.728 1.104,4.368 0,2.832 -1.584,5.184 -1.584,2.352 -4.752,3.792 -3.12,1.44 -7.92,1.44 z m 24.56401,-0.576 v -27.264 h -10.752 v -6.336 h 29.28 v 6.336 h -10.752 v 27.264 z m 21.204,0 v -33.6 h 25.392 v 6.24 h -17.664 v 21.12 h 18.288 v 6.24 z m 7.152,-14.016 v -6.048 h 16.176 v 6.048 z m 23.55598,14.016 v -33.6 h 7.776 v 27.264 h 16.848 v 6.336 z m 27.49201,0 v -33.6 h 7.776 v 27.264 h 16.848 v 6.336 z m 27.492,0 v -33.6 h 15.264 q 5.472,0 9.648,2.112 4.176,2.064 6.528,5.808 2.352,3.744 2.352,8.88 0,5.088 -2.352,8.88 -2.352,3.744 -6.528,5.856 -4.176,2.064 -9.648,2.064 z m 7.776,-6.384 h 7.104 q 3.36,0 5.808,-1.248 2.496,-1.296 3.84,-3.648 1.392,-2.352 1.392,-5.52 0,-3.216 -1.392,-5.52 -1.344,-2.352 -3.84,-3.6 -2.448,-1.296 -5.808,-1.296 h -7.104 z m 30.37201,6.384 v -33.6 h 25.392 v 6.24 h -17.664 v 21.12 h 18.288 v 6.24 z m 7.152,-14.016 v -6.048 h 16.176 v 6.048 z m 23.55598,14.016 v -33.6 h 25.392 v 6.24 h -17.616 v 27.36 z m 7.2,-12.24 v -6.24 h 16.128 v 6.24 z m 21.97199,12.24 v -33.6 h 25.392 v 6.24 h -17.664 v 21.12 h 18.288 v 6.24 z m 7.152,-14.016 v -6.048 h 16.176 v 6.048 z m 23.55598,14.016 v -33.6 h 7.776 v 27.264 h 16.848 v 6.336 z m 38.35833,0.576 q -4.032,0 -7.728,-1.056 -3.696,-1.104 -5.952,-2.832 l 2.64,-5.856 q 2.16,1.536 5.088,2.544 2.976,0.96 6,0.96 2.304,0 3.696,-0.432 1.44,-0.48 2.112,-1.296 0.672,-0.816 0.672,-1.872 0,-1.344 -1.056,-2.112 -1.056,-0.816 -2.784,-1.296 -1.728,-0.528 -3.84,-0.96 -2.064,-0.48 -4.176,-1.152 -2.064,-0.672 -3.792,-1.728 -1.728,-1.056 -2.832,-2.784 -1.056,-1.728 -1.056,-4.416 0,-2.88 1.536,-5.232 1.584,-2.4 4.704,-3.792 3.168,-1.44 7.92,-1.44 3.168,0 6.24,0.768 3.072,0.72 5.424,2.208 l -2.4,5.904 q -2.352,-1.344 -4.704,-1.968 -2.352,-0.672 -4.608,-0.672 -2.256,0 -3.696,0.528 -1.44,0.528 -2.064,1.392 -0.624,0.816 -0.624,1.92 0,1.296 1.056,2.112 1.056,0.768 2.784,1.248 1.728,0.48 3.792,0.96 2.112,0.48 4.176,1.104 2.112,0.624 3.84,1.68 1.728,1.056 2.784,2.784 1.104,1.728 1.104,4.368 0,2.832 -1.584,5.184 -1.584,2.352 -4.752,3.792 -3.12,1.44 -7.92,1.44 z"
         id="text16"
         transform="matrix(0.26458333,0,0,0.26458333,1.2747676,17.460042)"
         aria-label="ARQUERS CLUB&#10;CASTELLDEFELS" /></g></g></svg>
